<svg width="512" height="512" viewBox="0 0 512 512" fill="none" xmlns="http://www.w3.org/2000/svg">
  <defs>
    <linearGradient id="g1" x1="64" y1="64" x2="448" y2="448" gradientUnits="userSpaceOnUse">
      <stop offset="0" stop-color="#22C55E"/>
      <stop offset="0.5" stop-color="#0EA5E9"/>
      <stop offset="1" stop-color="#6366F1"/>
    </linearGradient>
  </defs>
  <rect x="32" y="32" width="448" height="448" rx="96" fill="#020617"/>
  <rect x="48" y="48" width="416" height="416" rx="88" fill="#020617"/>
  <rect x="64" y="64" width="384" height="384" rx="80" fill="url(#g1)" fill-opacity="0.18"/>
  <rect x="88" y="88" width="336" height="336" rx="72" stroke="url(#g1)" stroke-opacity="0.85" stroke-width="2"/>
  <circle cx="176" cy="256" r="86" stroke="white" stroke-width="8" stroke-linecap="round" stroke-linejoin="round"/>
  <path d="M216 218C207 204 193 196 176 196C146 196 124 218 124 248C124 278 146 300 176 300C193 300 207 292 216 278" stroke="white" stroke-width="8" stroke-linecap="round" stroke-linejoin="round"/>
  <path d="M284 206H368" stroke="white" stroke-width="8" stroke-linecap="round"/>
  <path d="M284 246H352" stroke="white" stroke-width="8" stroke-linecap="round"/>
  <path d="M284 286H344" stroke="white" stroke-width="8" stroke-linecap="round"/>
</svg>

